<svg width="46" height="50" viewBox="0 0 46 50" fill="none" xmlns="http://www.w3.org/2000/svg">
<path d="M14.8611 42.0556V44.4445C14.8611 46.7457 16.7266 48.6112 19.0277 48.6112H36.4167C38.7179 48.6112 40.5834 46.7457 40.5834 44.4445V18.0556M40.5834 18.0556H44.75V8.33342H43.3612M40.5834 18.0556H36.4167V8.33342H37.8056M37.8056 8.33342V4.16675H43.3612V8.33342M37.8056 8.33342H43.3612" stroke="#F37B09" stroke-width="1.9" stroke-linejoin="round"/>
<path d="M29.9361 39.0042V4.28197C29.9361 3.90193 29.8612 3.52562 29.7158 3.17453C29.5703 2.82343 29.3571 2.50444 29.0883 2.23578C28.8195 1.96712 28.5004 1.75405 28.1492 1.60874C27.7981 1.46343 27.4217 1.38873 27.0417 1.38892H3.89444C3.51441 1.38873 3.13806 1.46343 2.78689 1.60874C2.43573 1.75405 2.11664 1.96712 1.84785 2.23578C1.57906 2.50444 1.36583 2.82343 1.22035 3.17453C1.07488 3.52562 1 3.90193 1 4.28197V39.0042C0.999818 39.3843 1.07456 39.7608 1.21995 40.1121C1.36535 40.4633 1.57855 40.7825 1.84736 41.0513C2.11617 41.3201 2.43532 41.5333 2.78657 41.6787C3.13783 41.8241 3.51429 41.8988 3.89444 41.8986H27.0417C27.4218 41.8988 27.7983 41.8241 28.1495 41.6787C28.5008 41.5333 28.8199 41.3201 29.0888 41.0513C29.3576 40.7825 29.5708 40.4633 29.7162 40.1121C29.8615 39.7608 29.9363 39.3843 29.9361 39.0042Z" stroke="#F37B09" stroke-width="1.9" stroke-linecap="round" stroke-linejoin="round"/>
<path d="M15.0042 28.2404L17.8973 22.4529H12.1111L15.0042 16.6667" stroke="#F37B09" stroke-width="1.9" stroke-linecap="round" stroke-linejoin="round"/>
</svg>
